<?xml version="1.0" standalone="no"?><!DOCTYPE svg PUBLIC "-//W3C//DTD SVG 1.1//EN" "http://www.w3.org/Graphics/SVG/1.1/DTD/svg11.dtd"><svg t="1598785396340" class="icon" viewBox="0 0 1024 1024" version="1.1" xmlns="http://www.w3.org/2000/svg" p-id="2824" xmlns:xlink="http://www.w3.org/1999/xlink" width="200" height="200"><defs><style type="text/css"></style></defs><path d="M773.458 1005.43c-14.403 0-30.587-4.132-45.599-11.638L513.567 886.61 297.948 993.618c-13.655 7.27-29.286 11.09-45.225 11.09a96.164 96.164 0 0 1-57.549-18.842c-30.177-22.635-45.64-61.85-38.502-97.556l44.099-228.767L31.744 501.996a104.059 104.059 0 0 1-26.281-100.66l0.338-1.162c12.288-36.828 42.772-62.633 79.734-67.584l234.839-42.7L425.779 75.811c16.932-33.895 51.37-55.675 87.788-55.675 37.99 0 73.318 22.6 88.13 56.29l105.068 213.4L941.64 330.89a95.677 95.677 0 0 1 78.264 68.373 98.97 98.97 0 0 1-24.474 101.002l-0.578 0.579-168.55 158.72L868.9 888.74c6.86 36.654-7.716 73.666-38.062 96.737a90.358 90.358 0 0 1-57.38 19.953z m-259.84-217.052l211.548 105.789c6.216 3.133 13.374 5.1 18.268 5.1 7.547 0 14.546-2.32 19.687-6.61l0.962-0.784c12.022-9.026 17.88-23.352 15.253-37.391l-42.578-229.33 168.386-158.566c10.332-10.481 13.87-25.493 9.283-39.296l-0.456-1.45a34.683 34.683 0 0 0-28.78-25.092l-0.962-0.149-232.99-40.735-104.853-212.992c-5.1-11.899-18.903-20.536-32.86-20.536-13.706 0-26.819 8.581-33.46 21.837l-104.186 211.6-234.22 42.546c-14.223 1.787-25.277 11.234-30.377 25.969-3.625 13.466 0.666 29.686 10.563 39.803l168.576 157.087L246.18 854.63c-2.657 13.266 3.625 28.54 15.247 37.264 5.827 4.377 13.379 6.8 21.294 6.8 6.103 0 11.955-1.424 16.999-4.143l0.727-0.42 213.17-105.753z" fill="#FF6528" p-id="2825"></path></svg>